<svg xmlns="http://www.w3.org/2000/svg" viewBox="0 0 603.53 255.75"><path fill="#FFFFFF" d="M428.59,171.34c-12.79,10.27-26.39,14.93-41.62,14.57-27.45-.66-55.57-21.05-55.32-55.4,.17-22.82-.02-45.65-.02-68.48,0-5.17,.73-5.83,5.99-5.87,2.37-.02,4.74,0,7.11-.01,5.35,0,6.2,.74,6.21,6.15,.04,21.64,.94,43.33-.22,64.91-1.47,27.49,24.17,44.2,48.78,38.08,17.77-4.42,28.87-18.26,28.99-36.61,.15-22.08,.07-44.17,.09-66.25,0-5.69,.48-6.18,5.98-6.23,2.96-.02,5.93,.03,8.89-.06,3.41-.1,4.83,1.62,4.8,4.87-.03,3.56-.01,7.11-.01,10.67,0,42.24-.19,84.49,.08,126.73,.14,21.86-8.62,38.63-27.58,49.19-19.82,11.04-40.23,10.81-60.18-.22-11.08-6.12-19.22-15.16-24.49-26.72-2.49-5.47-1.47-6.68,4.3-7.16,8.37-.69,14.15,1.26,20.08,8.61,16,19.81,48.29,18.01,62.57-2.25,3.7-5.25,5.59-11.02,5.55-17.46-.06-10.02-.02-20.04-.02-31.06Z"/><path fill="#FFFFFF" d="M553.74,58.87c26.98,6.26,51.12,32.7,49.74,68.09-1.63,41.8-33.38,66.2-64.18,67.85-36.85,1.98-67.45-24.25-72.2-61.1-4.4-34.14,17.61-68.06,50.16-75.7-13.71,8.44-22.22,19.41-24.75,34.35-2.56,15.1,1.6,28.18,12.89,38.67,18.83,17.51,47.53,15.2,63.85-4.61,14.21-17.25,14.45-49.66-15.51-67.55Z"/><path fill="#FFFFFF" d="M234.81,76.53c0-5.93,.12-10.37-.04-14.8-.15-4.25,1.75-5.93,5.9-5.65,2.95,.2,5.93,.15,8.89,.05,3.45-.12,4.85,1.6,4.81,4.86-.02,1.63,.02,3.26,.02,4.89,0,40.16,.01,80.32,.01,120.48,0,7.43-.17,7.62-7.37,7.6-12.47-.03-12.3,1.89-12.25-12.2,0-2.21,0-4.43,0-7.94-16.45,15.62-35.29,22.86-57.01,20.95-21.76-1.91-39.13-12.05-51.47-30.14-18.54-27.18-15.47-64.01,7.2-87.6,13.59-14.13,30.36-21.42,49.94-21.73,19.55-.31,36.32,6.86,51.37,21.22Zm.18,48.3c.05-27.7-22.42-50.2-50.24-50.3-28.16-.1-51.05,22.58-51.1,50.63-.05,28.18,22.41,50.24,51.18,50.24,27.3,0,50.1-22.99,50.16-50.56Z"/><path fill="#FFFFFF" d="M19.55,114.18c2.58-2.05,4.29-3.37,5.96-4.74,19.6-16.04,39.24-32.03,58.75-48.18,4.32-3.57,8.78-5.67,14.54-5.16,4.41,.39,8.89-.03,13.33,.14,1.29,.05,2.54,.86,3.82,1.32-.69,1.04-1.19,2.32-2.11,3.08-16.87,14-33.78,27.93-50.69,41.88-8.9,7.34-17.8,14.68-27.17,22.4,2.77,2.35,5.28,4.53,7.84,6.64,22.88,18.82,45.77,37.63,68.65,56.44,.8,.66,1.7,1.26,2.29,2.09,.55,.76,1.22,1.97,.95,2.62-.27,.65-1.62,1.18-2.51,1.19-6.52,.1-13.05,.23-19.55-.04-1.74-.07-3.66-1.18-5.11-2.31-12.7-9.96-25.32-20.01-37.93-30.07-10.06-8.03-20.09-16.11-30.71-24.63-.14,1.75-.33,2.97-.33,4.18-.01,15.71,.01,31.41,0,47.12,0,5.25-.58,5.8-5.93,5.85-2.67,.03-5.35-.15-8,.07-4.39,.36-5.78-1.78-5.64-5.84,.17-4.59,.05-9.19,.05-13.78,0-56.01,0-112.02,.02-168.04C.08,.36,.35,.12,6.33,.1c2.52,0,5.05,.16,7.55-.04,4.23-.35,5.83,1.39,5.76,5.65-.18,11.7-.06,23.41-.07,35.12,0,22.38-.02,44.75-.03,67.13,0,1.71,0,3.42,0,6.22Z"/><path fill="#FFFFFF" d="M302.45,97.35c0,29.92,0,59.84,0,89.76,0,6.73-.19,6.9-7.06,6.9-2.07,0-4.15,.01-6.22,0-5.28-.03-6.09-.81-6.09-6.26,0-60.73,.04-121.46-.02-182.19,0-3.96,1.34-5.8,5.43-5.52,2.8,.19,5.64,.22,8.44-.01,4.37-.36,5.61,1.66,5.59,5.78-.11,30.51-.06,61.02-.06,91.54Z"/><path fill="#FFFFFF" d="M558.8,79.46c.05,13.64-10.6,24.73-23.78,24.79-13.35,.05-24.11-10.86-24.06-24.42,.04-13.44,10.62-24.21,23.8-24.25,13.43-.04,23.99,10.45,24.04,23.88Z"/></svg>
